<svg width="25" height="26" viewBox="0 0 25 26" fill="none" xmlns="http://www.w3.org/2000/svg">
<ellipse cx="12.4973" cy="12.951" rx="12.2483" ry="12.3691" fill="white" fill-opacity="0.8"/>
<path d="M16.7485 7.80245C15.9556 7.31851 15.1079 6.9668 14.2216 6.76654C14.1127 7.02327 13.9856 7.36858 13.8979 7.64327C12.9557 7.45843 12.0222 7.45843 11.0974 7.64327C11.0097 7.36858 10.8797 7.02327 10.7699 6.76654C9.88259 6.9668 9.03386 7.3198 8.24101 7.80501C6.64182 10.9576 6.2083 14.0319 6.42506 17.0626C7.48573 18.0959 8.51364 18.7236 9.52421 19.1343C9.77372 18.6864 9.99626 18.2101 10.188 17.7082C9.82285 17.5272 9.47315 17.3039 9.14273 17.0446C9.23039 16.9599 9.31613 16.8713 9.39897 16.7802C11.4143 18.0099 13.6041 18.0099 15.5954 16.7802C15.6792 16.8713 15.7649 16.9599 15.8516 17.0446C15.5202 17.3052 15.1695 17.5285 14.8044 17.7095C14.9961 18.2101 15.2177 18.6876 15.4682 19.1356C16.4797 18.7249 17.5086 18.0972 18.5693 17.0626C18.8236 13.5493 18.1348 10.5032 16.7485 7.80245ZM10.4625 15.1987C9.85754 15.1987 9.3614 14.4619 9.3614 13.5647C9.3614 12.6674 9.84695 11.9293 10.4625 11.9293C11.0781 11.9293 11.5743 12.6661 11.5637 13.5647C11.5646 14.4619 11.0781 15.1987 10.4625 15.1987ZM14.5318 15.1987C13.9268 15.1987 13.4307 14.4619 13.4307 13.5647C13.4307 12.6674 13.9162 11.9293 14.5318 11.9293C15.1474 11.9293 15.6435 12.6661 15.6329 13.5647C15.6329 14.4619 15.1474 15.1987 14.5318 15.1987Z" fill="#0A0914"/>
</svg>
