<svg width="25" height="26" viewBox="0 0 25 26" fill="none" xmlns="http://www.w3.org/2000/svg">
<ellipse cx="12.3664" cy="12.951" rx="12.2483" ry="12.3691" fill="white" fill-opacity="0.8"/>
<path d="M20.0214 8.33524C19.7252 8.95567 19.24 9.45939 18.6396 9.76958V10.256C18.6417 11.8377 18.2325 13.3911 17.4547 14.7553C16.6769 16.1195 15.5586 17.2448 14.2158 18.0146C12.8731 18.7843 11.3547 19.1705 9.81804 19.1331C8.28141 19.0957 6.78245 18.6361 5.47656 17.8019C5.68626 17.8207 5.89714 17.8207 6.10684 17.8019C7.50455 17.7985 8.85955 17.3059 9.9491 16.405C9.31983 16.3733 8.71255 16.1568 8.19916 15.781C7.68577 15.4052 7.28776 14.8859 7.05225 14.2846C7.25197 14.3245 7.45484 14.3454 7.65829 14.347C7.88214 14.3412 8.10513 14.3162 8.32492 14.2722C7.75669 14.0689 7.24504 13.7265 6.83408 13.2744C6.30209 12.6993 5.98815 11.947 5.94927 11.154C6.32217 11.3676 6.73574 11.4953 7.16134 11.5282C7.23763 11.5406 7.31534 11.5406 7.39163 11.5282L7.22194 11.391C6.72279 10.972 6.35231 10.4132 6.15532 9.78205C6.05895 9.48444 6.00984 9.17278 6.00987 8.85908C6.01444 8.32105 6.15209 7.79309 6.40986 7.32496C6.49086 7.45477 6.58425 7.57594 6.68863 7.68667C6.87044 7.8987 7.06437 8.11073 7.27042 8.31029C7.86008 8.89307 8.53492 9.37707 9.27034 9.74463C9.55909 9.90078 9.85893 10.0342 10.1673 10.1438C10.4098 10.2317 10.6566 10.3066 10.9066 10.3683C11.4073 10.4944 11.9189 10.5696 12.4338 10.5928H12.652C12.5158 10.0656 12.5158 9.51097 12.652 8.98381C12.6994 8.78731 12.7728 8.59845 12.8702 8.42254C12.9672 8.25606 13.0766 8.0976 13.1974 7.94859L13.2823 7.83634C13.558 7.50408 13.896 7.23257 14.2762 7.03809C14.4625 6.94706 14.6575 6.87601 14.858 6.82606L15.1731 6.77617C15.3223 6.76333 15.4724 6.76333 15.6216 6.77617C16.041 6.77656 16.4558 6.86656 16.8397 7.04046C17.2236 7.21436 17.5682 7.46838 17.8518 7.78645C18.0031 7.77467 18.1531 7.74964 18.3003 7.71161C18.6663 7.63696 19.0182 7.5022 19.3426 7.31249C19.4727 7.24398 19.5948 7.16028 19.7063 7.06304C19.5269 7.71945 19.1384 8.29484 18.6033 8.69694C19.0936 8.66727 19.5744 8.54465 20.0214 8.33524Z" fill="#0A0914"/>
</svg>
